<?xml version="1.0" standalone="no"?>
<!DOCTYPE svg PUBLIC "-//W3C//DTD SVG 20010904//EN"
 "http://www.w3.org/TR/2001/REC-SVG-20010904/DTD/svg10.dtd">
<svg version="1.0" xmlns="http://www.w3.org/2000/svg"
 width="1384.000000pt" height="1384.000000pt" viewBox="0 0 1384.000000 1384.000000"
 preserveAspectRatio="xMidYMid meet">
<metadata>
Created by potrace 1.11, written by Peter Selinger 2001-2013
</metadata>
<g transform="translate(0.000000,1384.000000) scale(0.100000,-0.100000)"
fill="#000000" stroke="none">
<path d="M1998 13833 c-2 -5 -3 -2104 -3 -4665 0 -3099 -3 -4658 -10 -4658 -7
0 -7 -3 0 -8 6 -4 10 -122 10 -317 0 -195 -4 -313 -10 -317 -7 -5 -7 -8 0 -8
6 0 10 -71 9 -195 0 -107 3 -195 8 -195 4 0 8 5 8 10 0 6 39 -18 88 -53 48
-35 116 -84 152 -109 36 -24 299 -211 585 -413 286 -203 552 -390 590 -417 39
-27 116 -82 172 -121 56 -40 164 -115 239 -167 75 -52 141 -100 148 -105 6 -6
97 -71 201 -145 184 -129 274 -193 439 -309 43 -31 88 -63 100 -71 11 -8 118
-83 236 -167 118 -83 237 -167 263 -185 26 -18 63 -44 81 -58 19 -14 44 -32
56 -40 12 -8 32 -22 44 -31 11 -8 50 -36 86 -61 125 -87 805 -567 815 -575 6
-5 87 -62 180 -128 94 -65 206 -145 250 -177 44 -31 105 -75 136 -98 31 -22
60 -40 64 -40 7 0 143 93 420 289 94 66 239 168 324 228 84 59 184 131 222
158 38 28 113 81 166 118 54 38 206 145 338 238 132 94 251 178 265 187 14 9
171 121 350 247 346 244 374 264 398 280 9 6 22 16 30 23 7 6 23 17 35 23 11
7 26 16 31 21 18 16 423 301 546 385 63 43 117 80 120 83 3 3 46 33 96 67 193
132 365 248 499 339 77 53 212 145 300 205 88 60 212 145 275 188 63 43 162
111 220 150 58 40 149 102 203 138 l98 67 -2 1173 -1 1173 -55 38 c-30 20 -60
42 -66 48 -7 5 -52 38 -102 72 -49 34 -108 75 -130 90 -22 16 -152 107 -290
203 -137 96 -272 191 -300 210 -27 19 -200 140 -382 268 -183 127 -333 237
-333 242 0 6 -5 7 -10 4 -6 -3 -13 1 -16 9 -3 9 -9 14 -14 11 -4 -2 -16 4 -26
13 -10 10 -36 28 -56 41 -21 12 -38 30 -38 39 0 15 -2 15 -10 2 -5 -8 -10 -10
-10 -5 0 6 -10 15 -22 20 -13 6 -22 15 -21 21 1 6 -4 11 -11 11 -14 0 -109 62
-114 75 -2 4 -10 8 -18 8 -8 0 -14 4 -14 9 0 5 -8 12 -19 16 -27 8 -62 41 -53
49 4 4 2 6 -5 4 -13 -3 -93 43 -93 54 0 5 -7 8 -15 8 -8 0 -15 5 -15 10 0 6
-6 10 -12 10 -7 0 -28 14 -45 30 -18 17 -36 31 -40 32 -8 1 -94 57 -103 67 -3
3 -34 26 -70 51 -36 24 -66 48 -68 52 -2 4 -8 8 -13 8 -6 0 -49 28 -97 63
-130 92 -138 99 -123 91 9 -5 12 -3 7 4 -4 6 -13 9 -20 6 -8 -3 -21 5 -30 18
-9 13 -19 21 -22 20 -9 -6 -73 42 -68 50 3 4 -4 8 -16 8 -12 0 -18 4 -15 10 3
6 -1 7 -9 4 -9 -4 -18 1 -22 10 -3 9 -12 16 -19 16 -20 0 -39 27 -23 33 7 3 2
5 -12 4 -16 -1 -24 3 -22 11 1 8 -2 11 -8 7 -5 -3 -10 -1 -10 4 0 6 -3 10 -7
9 -14 -5 -83 43 -78 53 4 5 0 7 -7 4 -7 -3 -26 6 -41 19 -16 13 -37 30 -48 38
-19 12 -8 22 151 133 94 66 186 131 203 143 18 13 199 140 402 283 204 142
379 265 390 273 11 8 121 85 245 172 124 87 243 171 265 186 22 16 74 51 115
80 41 28 77 54 80 57 3 3 32 24 65 47 33 22 168 116 300 209 132 92 267 187
300 210 33 23 85 60 116 81 30 21 186 131 347 244 271 190 292 206 293 235 0
16 1 786 1 1710 l1 1680 -989 0 -989 0 -1 -35 c-1 -19 -5 -107 -8 -195 -4 -88
-9 -200 -11 -250 -11 -270 -17 -414 -20 -483 -2 -42 -7 -151 -10 -242 -9 -237
-14 -343 -19 -347 -2 -2 -201 -6 -442 -8 -242 -3 -667 -7 -945 -10 l-506 -5
-1 777 c0 428 -1 784 -1 791 -1 9 -204 12 -981 12 l-980 0 0 -790 0 -790 -992
2 -991 3 0 788 0 787 -988 0 c-543 0 -989 -3 -991 -7z"/>
</g>
</svg>
